<svg width="200" height="197" viewBox="0 0 200 197" fill="none" xmlns="http://www.w3.org/2000/svg">
<path fill-rule="evenodd" clip-rule="evenodd" d="M200 84C200 116.511 181.53 144.709 154.511 158.672C139.538 181.741 113.551 197 84 197C37.6081 197 0 159.392 0 113C0 80.4887 18.47 52.2912 45.4893 38.3282C60.4624 15.2593 86.4492 0 116 0C162.392 0 200 37.6081 200 84ZM83 177C117.794 177 146 148.794 146 114C146 79.2061 117.794 51 83 51C48.2061 51 20 79.2061 20 114C20 148.794 48.2061 177 83 177Z" fill="#111111"/>
</svg>
