<svg width="165" height="166" viewBox="0 0 165 166" fill="none" xmlns="http://www.w3.org/2000/svg">
<path fill-rule="evenodd" clip-rule="evenodd" d="M75.5 157C85.9568 157 95.8582 154.622 104.693 150.378C115.279 145.292 124.334 137.527 130.978 127.961C138.557 117.049 143 103.793 143 89.5C143 88.6136 142.983 87.7313 142.949 86.8532C142.894 85.4231 142.794 84.0044 142.652 82.5985C139.195 48.5612 110.449 22 75.5 22C74.6438 22 73.7913 22.0159 72.9428 22.0475C57.8397 22.6101 44.0052 28.1348 33.022 37.0388C25.2927 43.3051 18.9755 51.245 14.6221 60.3069C10.3777 69.1418 8 79.0432 8 89.5C8 126.779 38.2208 157 75.5 157ZM151.313 100.263C151.766 96.9069 152 93.4808 152 90C152 48.0264 117.974 14 76 14C68.6489 14 61.5416 15.0437 54.8181 16.9909C64.7311 11.272 76.2334 8 88.5 8C125.779 8 156 38.2208 156 75.5C156 84.2422 154.338 92.5963 151.313 100.263ZM137.764 134.295C154.413 120.354 165 99.4134 165 76C165 34.0264 130.974 0 89 0C63.5545 0 41.0298 12.505 27.2359 31.7047C10.5875 45.646 0 66.5866 0 90C0 131.974 34.0264 166 76 166C101.445 166 123.97 153.495 137.764 134.295ZM104.131 129.642C99.0231 131.176 93.6078 132 88 132C57.072 132 32 106.928 32 76C32 70.3922 32.8243 64.977 34.3583 59.8688C28.4682 68.0716 25 78.1308 25 89C25 116.614 47.3857 139 75 139C85.8692 139 95.9283 135.532 104.131 129.642ZM117.988 114.55C109.641 121.24 99.0465 125.241 87.5172 125.241C60.5886 125.241 38.7586 103.411 38.7586 76.4828C38.7586 64.9535 42.7601 54.3588 49.4502 46.0119C56.9274 41.5582 65.6649 39 75 39C102.614 39 125 61.3857 125 89C125 98.3351 122.442 107.073 117.988 114.55ZM132.712 94.8155C132.894 92.9843 132.992 91.128 132.999 89.2507C132.865 57.6091 107.173 32 75.5 32C43.7437 32 18 57.7436 18 89.5C18 121.173 43.6091 146.865 75.2507 146.999C96.7634 146.908 115.512 135.105 125.449 117.637C125.59 117.51 125.731 117.382 125.871 117.253C129.628 110.45 132.046 102.804 132.771 94.6705L132.712 94.8155Z" fill="#0D0D0D"/>
</svg>
